<svg xmlns="http://www.w3.org/2000/svg" version="1.1" viewBox="-5.0 -10.0 110.0 135.0">
 <path fill="white" d="m89.105 0h-78.211c-6.0078 0-10.895 4.8867-10.895 10.895v78.211c0 6.0078 4.8867 10.895 10.895 10.895h78.211c6.0078 0 10.895-4.8867 10.895-10.895v-78.211c0-6.0078-4.8867-10.895-10.895-10.895zm-87.465 73.039c0.58984-0.21875 1.7656-0.56641 3.4805-0.70312h0.019531c3.3086-0.25781 8.6016 0.28516 15.539 4.1094 8.3984 4.6328 13.516 5.4844 16.137 5.4844 0.91797 0 1.5312-0.10547 1.875-0.1875 0.24609 0.089843 0.49609 0.17969 0.74609 0.26562-7.2695 3.5898-14.754 5.6172-21.648 1.4023-6.6836-4.0898-13.613-3.625-16.156-3.2656zm45.832-30.523c-0.054687-0.14844-1.3867-3.6875-5.5312-5.582-0.015625-0.007813-0.027344-0.011719-0.042968-0.019532-1.7266-0.78125-3.6992-1.1641-5.8672-1.1328h-0.011719c-1.6875 0.023438-3.5273 0.30078-5.4609 0.83203-5.7852 1.582-10.051 5.5195-12.012 11.09-2.4258 6.8789-0.78516 15.254 4.3828 22.395 3.0703 4.2422 7.1211 7.6133 12.07 10.055-2.6836-0.35938-7.0547-1.5781-13.527-5.1484-1.6133-0.89062-3.1445-1.6094-4.5898-2.1914-2.8828-4.7969-5.8438-12.902-3.9766-24.621 1.3906-8.7227 6.5703-15.012 15.398-18.691 6.1641-2.5703 12.055-2.9062 12.961-2.9453 9.418 3.0977 12.91 11.641 12.996 15.059 0.070312 2.875-1.1602 5.6523-2.9883 6.7578-1.1289 0.68359-2.375 0.65625-3.6992-0.078125-1.0508-0.58594-1.6328-1.2578-1.7188-2.0078-0.14062-1.1914 0.96094-2.4883 1.3945-2.8867 0.25-0.21875 0.33984-0.57031 0.22266-0.88281zm-10.527 11.109c0.28125 1.2188 2.6367 9.3359 15.363 9.6562 11.469 0.28906 15.273 2.3047 20.09 4.8516 0.62891 0.33203 1.2734 0.67188 1.9492 1.0195 2.3984 1.2227 5.5703 1.8984 9.0312 1.8984 4.8828 0 10.332-1.3516 14.977-4.4102v7.8398c-2.5977 1.1641-15.469 6.5703-21.727 2.1328-7.5781-5.3789-17.094-5.5508-22.09-5.1797-0.35547 0.027344-0.78125 0.070312-1.2656 0.11719-6.3164 0.62891-21.125 2.0938-25.172-13.984-1.5312-6.082-1.1641-11.043 1.0859-14.75 2.4297-4 6.3516-5.2227 6.9609-5.3906 1.3984-0.011719 2.6953 0.16797 3.875 0.53125-2.7305 2.5391-7.3359 8.3242-3.0781 15.668zm-9.2188-25.652c-9.2852 3.8555-14.969 10.758-16.434 19.965-1.7422 10.926 0.56641 18.871 3.2422 24.027-3.6953-1.1875-6.7305-1.4375-9.0234-1.3125-2.5664-4.7773-3.8672-9.8945-3.8672-15.219 0-0.42969 0.007813-0.82812 0.023438-1.2109 0.55469-14.98 15.23-28.441 31.41-28.805 1.0703-0.023438 2.0898 0.015625 3.0664 0.10156-2.3828 0.43359-5.3477 1.1797-8.418 2.4531zm13.77 52.98c-0.84766-0.25781-1.6836-0.53906-2.4805-0.83984-6.2305-2.3594-11.195-6.0508-14.754-10.973-4.8516-6.707-6.4102-14.516-4.1641-20.891 1.7773-5.043 5.6484-8.6133 10.898-10.051 0.078125-0.023438 0.15625-0.039063 0.23438-0.0625-1.1875 0.90625-2.4141 2.1367-3.4258 3.8008-2.5039 4.0977-2.9375 9.4883-1.293 16.027 4.3906 17.449 20.766 15.828 26.93 15.219 0.47266-0.046875 0.88281-0.085938 1.2266-0.11328 4.7773-0.35937 13.859-0.19922 21.016 4.8789 2.0859 1.4805 4.7305 2.0234 7.4961 2.0234 5.9922 0 12.543-2.5508 15.18-3.6953v3.0273c-2.6914 4.0391-6.3008 6.543-10.738 7.4336-5.7617 1.1562-12.758-0.57031-18.711-4.625-9.9023-6.7422-16.395-7.2695-25.723-2.082-0.55859 0.3125-1.125 0.62109-1.6914 0.92188zm56.863-16.301c-7.4453 5.4219-17.812 5.8242-23.266 3.0391-0.66797-0.33984-1.3047-0.67969-1.9258-1.0078-4.8086-2.5469-8.9609-4.7422-20.816-5.043-5.6875-0.14453-9.0547-1.8945-11.043-3.7656 1.2188 0.64062 2.5898 1.0586 4.0859 1.2383 0.52734 0.0625 1.0625 0.09375 1.6055 0.09375 4.3125 0 8.957-1.9688 12.273-5.2617 1.2188-0.1875 7.5625-0.83984 15.484 4.1797 2.1992 1.3906 4.668 1.9297 7.1758 1.9297 6.6719 0 13.605-3.8203 16.422-5.5625zm-40.059-12.039c-3.3945 3.4805-8.3828 5.3945-12.707 4.875-2.1875-0.26172-5.207-1.2695-7.1641-4.5742-4.0352-6.8086 0.64453-12.047 3.2852-14.27 2.3828 1.2422 3.5742 3.1289 4.0117 3.9844-0.625 0.70703-1.6875 2.1836-1.4961 3.8438 0.15234 1.3047 1.0078 2.3984 2.5547 3.2578 1.8242 1.0117 3.7227 1.0312 5.3438 0.050781 2.3047-1.3945 3.8594-4.7695 3.7773-8.2031-0.070312-2.7773-1.7383-7.2617-5.3164-11.023-3.0508-3.2031-8.5703-6.9844-17.555-6.7773-7.9453 0.17969-16.102 3.4883-22.379 9.082-4.2227 3.7617-7.2852 8.2305-9.0156 13.039v-10.93c7.7227-15.781 30.297-20.062 43.148-16.172 12.52 3.7891 20.113 15.719 17.281 27.16-0.60156 2.4453-1.9062 4.7461-3.7695 6.6562zm-54.551 18.219c-0.87109 0.13281-1.5781 0.30859-2.1094 0.47656v-5.5273c0.55859 1.7148 1.2617 3.4023 2.1094 5.0508zm-2.1094 10.973c2.082-0.30859 8.9023-0.91406 15.301 3.0039 8.8008 5.3867 18.203 1.5742 27.051-3.3438 8.7734-4.8789 14.605-4.3906 24 2.0039 5.0039 3.4062 10.734 5.2578 15.977 5.2578 1.3672 0 2.6992-0.125 3.9805-0.38281 3.4453-0.69141 6.4297-2.2578 8.9219-4.6719-4.3242 6.3633-8.8594 10.055-13.805 11.258-5.418 1.3125-11.504-0.25391-19.164-4.9336-12.109-7.3984-20.176-3.3203-30.391 1.8438-1.8828 0.95312-3.8281 1.9336-5.8984 2.9023-11.773 5.4883-24.18-6.2969-25.969-8.0938zm9.2539-80.164h78.211c5.1016 0 9.2539 4.1523 9.2539 9.2539v41.656c-2.25 1.4648-14.824 9.1914-22.719 4.1914-6.4883-4.1094-11.941-4.6523-14.797-4.5742 1.3438-1.7617 2.3086-3.7422 2.8203-5.8203 1.4531-5.875 0.37109-12.117-3.0508-17.574-3.4375-5.4883-8.8906-9.5898-15.352-11.547-7.0703-2.1406-16.223-1.8945-24.477 0.66016-8.4531 2.6133-15.137 7.4336-19.148 13.734l0.003906-20.727c0-5.1016 4.1523-9.2539 9.2539-9.2539zm78.211 96.719h-78.211c-5.1016 0-9.2539-4.1523-9.2539-9.2539v-0.18359c1.4883 1.3633 4.0664 3.5039 7.332 5.3594 4.1523 2.3594 8.2148 3.5469 12.035 3.5469 2.5547 0 5.0039-0.53125 7.293-1.5977 2.0977-0.97656 4.0547-1.9688 5.9453-2.9258 10.141-5.1289 17.465-8.832 28.797-1.9102 8.0586 4.9219 14.543 6.5547 20.406 5.1289 5.4102-1.3125 10.305-5.2891 14.91-12.125v4.707c0 5.1016-4.1523 9.2539-9.2539 9.2539z"/>
 <path fill="white" d="m79.035 29.969c6.2617 0 11.355-5.0938 11.355-11.355 0-6.2656-5.0938-11.359-11.355-11.359-6.2617 0-11.355 5.0938-11.355 11.355-0.003907 6.2656 5.0938 11.359 11.355 11.359zm0-21.074c5.3594 0 9.7188 4.3594 9.7188 9.7188s-4.3594 9.7188-9.7188 9.7188-9.7188-4.3594-9.7188-9.7188 4.3594-9.7188 9.7188-9.7188z"/>
</svg>
